<svg width="142" height="40" viewBox="0 0 142 40" fill="none" xmlns="http://www.w3.org/2000/svg">
<path d="M20.2836 22.18C20.2836 22.7 20.1586 23.185 19.9086 23.635C19.6586 24.075 19.2786 24.43 18.7686 24.7C18.2586 24.97 17.6336 25.105 16.8936 25.105C16.1736 25.105 15.5286 24.98 14.9586 24.73C14.3886 24.47 13.9336 24.11 13.5936 23.65C13.2536 23.19 13.0586 22.66 13.0086 22.06H14.8386C14.8886 22.52 15.0836 22.915 15.4236 23.245C15.7736 23.575 16.2386 23.74 16.8186 23.74C17.3386 23.74 17.7386 23.6 18.0186 23.32C18.3086 23.04 18.4536 22.68 18.4536 22.24C18.4536 21.86 18.3486 21.55 18.1386 21.31C17.9286 21.06 17.6686 20.865 17.3586 20.725C17.0486 20.585 16.6236 20.425 16.0836 20.245C15.4236 20.035 14.8836 19.825 14.4636 19.615C14.0536 19.405 13.7036 19.1 13.4136 18.7C13.1236 18.3 12.9786 17.775 12.9786 17.125C12.9786 16.555 13.1186 16.055 13.3986 15.625C13.6786 15.195 14.0786 14.865 14.5986 14.635C15.1186 14.395 15.7186 14.275 16.3986 14.275C17.4786 14.275 18.3336 14.535 18.9636 15.055C19.6036 15.575 19.9686 16.255 20.0586 17.095H18.2136C18.1436 16.695 17.9536 16.355 17.6436 16.075C17.3436 15.785 16.9286 15.64 16.3986 15.64C15.9186 15.64 15.5336 15.765 15.2436 16.015C14.9536 16.255 14.8086 16.605 14.8086 17.065C14.8086 17.425 14.9086 17.725 15.1086 17.965C15.3086 18.195 15.5586 18.38 15.8586 18.52C16.1686 18.65 16.5886 18.805 17.1186 18.985C17.7886 19.195 18.3336 19.41 18.7536 19.63C19.1836 19.84 19.5436 20.15 19.8336 20.56C20.1336 20.97 20.2836 21.51 20.2836 22.18ZM29.6754 20.47C29.6754 20.75 29.6554 20.995 29.6154 21.205H23.2554C23.2854 22.055 23.5204 22.685 23.9604 23.095C24.4004 23.505 24.9454 23.71 25.5954 23.71C26.1654 23.71 26.6454 23.565 27.0354 23.275C27.4354 22.985 27.6804 22.6 27.7704 22.12H29.6004C29.4904 22.7 29.2604 23.215 28.9104 23.665C28.5604 24.115 28.1054 24.47 27.5454 24.73C26.9854 24.98 26.3604 25.105 25.6704 25.105C24.8704 25.105 24.1604 24.935 23.5404 24.595C22.9304 24.255 22.4504 23.765 22.1004 23.125C21.7504 22.485 21.5754 21.73 21.5754 20.86C21.5754 20 21.7504 19.25 22.1004 18.61C22.4504 17.97 22.9304 17.48 23.5404 17.14C24.1604 16.8 24.8704 16.63 25.6704 16.63C26.4804 16.63 27.1854 16.8 27.7854 17.14C28.3954 17.47 28.8604 17.93 29.1804 18.52C29.5104 19.1 29.6754 19.75 29.6754 20.47ZM27.9504 20.425C27.9704 19.885 27.8754 19.435 27.6654 19.075C27.4654 18.705 27.1854 18.435 26.8254 18.265C26.4754 18.085 26.0904 17.995 25.6704 17.995C25.0004 17.995 24.4404 18.2 23.9904 18.61C23.5404 19.02 23.2954 19.625 23.2554 20.425H27.9504ZM39.0065 20.47C39.0065 20.75 38.9865 20.995 38.9465 21.205H32.5865C32.6165 22.055 32.8515 22.685 33.2915 23.095C33.7315 23.505 34.2765 23.71 34.9265 23.71C35.4965 23.71 35.9765 23.565 36.3665 23.275C36.7665 22.985 37.0115 22.6 37.1015 22.12H38.9315C38.8215 22.7 38.5915 23.215 38.2415 23.665C37.8915 24.115 37.4365 24.47 36.8765 24.73C36.3165 24.98 35.6915 25.105 35.0015 25.105C34.2015 25.105 33.4915 24.935 32.8715 24.595C32.2615 24.255 31.7815 23.765 31.4315 23.125C31.0815 22.485 30.9065 21.73 30.9065 20.86C30.9065 20 31.0815 19.25 31.4315 18.61C31.7815 17.97 32.2615 17.48 32.8715 17.14C33.4915 16.8 34.2015 16.63 35.0015 16.63C35.8115 16.63 36.5165 16.8 37.1165 17.14C37.7265 17.47 38.1915 17.93 38.5115 18.52C38.8415 19.1 39.0065 19.75 39.0065 20.47ZM37.2815 20.425C37.3015 19.885 37.2065 19.435 36.9965 19.075C36.7965 18.705 36.5165 18.435 36.1565 18.265C35.8065 18.085 35.4215 17.995 35.0015 17.995C34.3315 17.995 33.7715 18.2 33.3215 18.61C32.8715 19.02 32.6265 19.625 32.5865 20.425H37.2815ZM51.1332 22.18C51.1332 22.7 51.0082 23.185 50.7582 23.635C50.5082 24.075 50.1282 24.43 49.6182 24.7C49.1082 24.97 48.4832 25.105 47.7432 25.105C47.0232 25.105 46.3782 24.98 45.8082 24.73C45.2382 24.47 44.7832 24.11 44.4432 23.65C44.1032 23.19 43.9082 22.66 43.8582 22.06H45.6882C45.7382 22.52 45.9332 22.915 46.2732 23.245C46.6232 23.575 47.0882 23.74 47.6682 23.74C48.1882 23.74 48.5882 23.6 48.8682 23.32C49.1582 23.04 49.3032 22.68 49.3032 22.24C49.3032 21.86 49.1982 21.55 48.9882 21.31C48.7782 21.06 48.5182 20.865 48.2082 20.725C47.8982 20.585 47.4732 20.425 46.9332 20.245C46.2732 20.035 45.7332 19.825 45.3132 19.615C44.9032 19.405 44.5532 19.1 44.2632 18.7C43.9732 18.3 43.8282 17.775 43.8282 17.125C43.8282 16.555 43.9682 16.055 44.2482 15.625C44.5282 15.195 44.9282 14.865 45.4482 14.635C45.9682 14.395 46.5682 14.275 47.2482 14.275C48.3282 14.275 49.1832 14.535 49.8132 15.055C50.4532 15.575 50.8182 16.255 50.9082 17.095H49.0632C48.9932 16.695 48.8032 16.355 48.4932 16.075C48.1932 15.785 47.7782 15.64 47.2482 15.64C46.7682 15.64 46.3832 15.765 46.0932 16.015C45.8032 16.255 45.6582 16.605 45.6582 17.065C45.6582 17.425 45.7582 17.725 45.9582 17.965C46.1582 18.195 46.4082 18.38 46.7082 18.52C47.0182 18.65 47.4382 18.805 47.9682 18.985C48.6382 19.195 49.1832 19.41 49.6032 19.63C50.0332 19.84 50.3932 20.15 50.6832 20.56C50.9832 20.97 51.1332 21.51 51.1332 22.18ZM56.6251 16.63C57.4251 16.63 58.1451 16.8 58.7851 17.14C59.4251 17.48 59.9251 17.97 60.2851 18.61C60.6451 19.25 60.8251 20 60.8251 20.86C60.8251 21.73 60.6451 22.485 60.2851 23.125C59.9251 23.765 59.4251 24.255 58.7851 24.595C58.1451 24.935 57.4251 25.105 56.6251 25.105C55.8251 25.105 55.1051 24.935 54.4651 24.595C53.8351 24.255 53.3351 23.765 52.9651 23.125C52.6051 22.475 52.4251 21.72 52.4251 20.86C52.4251 20 52.6051 19.25 52.9651 18.61C53.3351 17.97 53.8351 17.48 54.4651 17.14C55.1051 16.8 55.8251 16.63 56.6251 16.63ZM56.6251 18.115C56.1851 18.115 55.7801 18.215 55.4101 18.415C55.0401 18.615 54.7401 18.925 54.5101 19.345C54.2901 19.755 54.1801 20.26 54.1801 20.86C54.1801 21.47 54.2901 21.98 54.5101 22.39C54.7401 22.8 55.0401 23.105 55.4101 23.305C55.7801 23.505 56.1851 23.605 56.6251 23.605C57.0651 23.605 57.4701 23.505 57.8401 23.305C58.2101 23.105 58.5051 22.8 58.7251 22.39C58.9551 21.98 59.0701 21.47 59.0701 20.86C59.0701 20.26 58.9551 19.755 58.7251 19.345C58.5051 18.925 58.2101 18.615 57.8401 18.415C57.4701 18.215 57.0651 18.115 56.6251 18.115ZM70.0891 16.735V25H68.3641V23.2C68.1541 23.81 67.7891 24.285 67.2691 24.625C66.7491 24.955 66.1441 25.12 65.4541 25.12C64.4941 25.12 63.7241 24.81 63.1441 24.19C62.5641 23.57 62.2741 22.685 62.2741 21.535V16.735H63.9841V21.355C63.9841 22.105 64.1741 22.685 64.5541 23.095C64.9341 23.495 65.4541 23.695 66.1141 23.695C66.7941 23.695 67.3391 23.475 67.7491 23.035C68.1591 22.595 68.3641 21.955 68.3641 21.115V16.735H70.0891ZM73.8471 18.355C74.1271 17.815 74.5271 17.39 75.0471 17.08C75.5671 16.76 76.1671 16.6 76.8471 16.6V18.46H76.3371C75.5871 18.46 74.9821 18.645 74.5221 19.015C74.0721 19.375 73.8471 19.975 73.8471 20.815V25H72.1371V16.735H73.8471V18.355ZM81.8033 16.63C82.8733 16.63 83.7583 16.915 84.4583 17.485C85.1583 18.045 85.5933 18.81 85.7633 19.78H83.9483C83.8483 19.26 83.6033 18.855 83.2133 18.565C82.8333 18.265 82.3533 18.115 81.7733 18.115C81.1133 18.115 80.5633 18.35 80.1233 18.82C79.6833 19.28 79.4633 19.96 79.4633 20.86C79.4633 21.76 79.6833 22.445 80.1233 22.915C80.5633 23.385 81.1133 23.62 81.7733 23.62C82.3533 23.62 82.8333 23.47 83.2133 23.17C83.6033 22.87 83.8483 22.46 83.9483 21.94H85.7633C85.5933 22.91 85.1583 23.68 84.4583 24.25C83.7583 24.82 82.8733 25.105 81.8033 25.105C81.0033 25.105 80.2933 24.935 79.6733 24.595C79.0633 24.255 78.5833 23.765 78.2333 23.125C77.8833 22.485 77.7083 21.73 77.7083 20.86C77.7083 20 77.8833 19.25 78.2333 18.61C78.5833 17.97 79.0633 17.48 79.6733 17.14C80.2933 16.8 81.0033 16.63 81.8033 16.63ZM95.0954 20.47C95.0954 20.75 95.0754 20.995 95.0354 21.205H88.6754C88.7054 22.055 88.9404 22.685 89.3804 23.095C89.8204 23.505 90.3654 23.71 91.0154 23.71C91.5854 23.71 92.0654 23.565 92.4554 23.275C92.8554 22.985 93.1004 22.6 93.1904 22.12H95.0204C94.9104 22.7 94.6804 23.215 94.3304 23.665C93.9804 24.115 93.5254 24.47 92.9654 24.73C92.4054 24.98 91.7804 25.105 91.0904 25.105C90.2904 25.105 89.5804 24.935 88.9604 24.595C88.3504 24.255 87.8704 23.765 87.5204 23.125C87.1704 22.485 86.9954 21.73 86.9954 20.86C86.9954 20 87.1704 19.25 87.5204 18.61C87.8704 17.97 88.3504 17.48 88.9604 17.14C89.5804 16.8 90.2904 16.63 91.0904 16.63C91.9004 16.63 92.6054 16.8 93.2054 17.14C93.8154 17.47 94.2804 17.93 94.6004 18.52C94.9304 19.1 95.0954 19.75 95.0954 20.47ZM93.3704 20.425C93.3904 19.885 93.2954 19.435 93.0854 19.075C92.8854 18.705 92.6054 18.435 92.2454 18.265C91.8954 18.085 91.5104 17.995 91.0904 17.995C90.4204 17.995 89.8604 18.2 89.4104 18.61C88.9604 19.02 88.7154 19.625 88.6754 20.425H93.3704Z" fill="#6070FF"/>
<g clip-path="url(#clip0_34_1257)">
<path d="M126.999 17.4611C126.999 16.3212 126.633 15.2504 125.934 14.3178C126.2 13.4197 126.267 12.2798 126.2 10.9672C126.167 10.4145 125.735 10 125.202 10C124.903 10 122.374 10.0345 120.91 11.3817C119.646 11.1399 118.315 11.1399 117.017 11.3817C115.587 10.0345 113.058 10 112.725 10C112.193 10 111.76 10.4145 111.727 10.9672C111.627 12.2798 111.727 13.4197 111.993 14.3178C111.295 15.285 110.929 16.3558 110.929 17.4611C110.929 19.8791 112.725 22.0553 115.454 23.0915C115.354 23.2988 115.287 23.5406 115.221 23.7824C112.326 23.4715 110.962 20.7427 110.895 20.639C110.662 20.1209 110.064 19.9136 109.564 20.19C109.065 20.4318 108.866 21.0535 109.132 21.5717C109.199 21.7444 111.028 25.4404 115.054 25.8549V28.9637C115.054 29.5509 115.487 30 116.052 30H121.875C122.441 30 122.873 29.5509 122.873 28.9637V24.8532C122.873 24.2314 122.74 23.6442 122.507 23.1261C125.202 22.0553 126.999 19.9136 126.999 17.4611Z" fill="#6070FF"/>
</g>
<rect x="0.5" y="0.5" width="141" height="39" rx="7.5" stroke="#6070FF"/>
<defs>
<clipPath id="clip0_34_1257">
<rect width="18" height="20" fill="white" transform="translate(109 10)"/>
</clipPath>
</defs>
</svg>
